<?xml version="1.0" encoding="UTF-8"?>
<svg xmlns="http://www.w3.org/2000/svg" width="40" height="40" viewBox="0 0 40 40" fill="none">
  <path d="M10.9007 27H9.60067C8.91111 27 8.24979 26.714 7.76219 26.205C7.2746 25.696 7.00067 25.0056 7.00067 24.2857V10.7143C7.00067 9.99441 7.2746 9.30402 7.76219 8.795C8.24979 8.28597 8.91111 8 9.60067 8H30.4007C31.0902 8 31.7516 8.28597 32.2391 8.795C32.7267 9.30402 33.0007 9.99441 33.0007 10.7143V24.2857C33.0007 25.0056 32.7267 25.696 32.2391 26.205C31.7516 26.714 31.0902 27 30.4007 27H29.1007" stroke="currentcolor" stroke-width="2" stroke-linecap="round" stroke-linejoin="round"></path>
  <path d="M20.0007 24L27.0007 32H13.0007L20.0007 24Z" stroke="currentcolor" stroke-width="2" stroke-linecap="round" stroke-linejoin="round"></path>
</svg>
