<?xml version="1.0" encoding="UTF-8"?>
<svg xmlns="http://www.w3.org/2000/svg" width="56" height="56" viewBox="0 0 56 56" fill="none">
  <path d="M15.261 37.8H13.441C12.4756 37.8 11.5498 37.3996 10.8672 36.687C10.1845 35.9743 9.80103 35.0078 9.80103 34V15C9.80103 13.9921 10.1845 13.0256 10.8672 12.3129C11.5498 11.6003 12.4756 11.2 13.441 11.2H42.561C43.5264 11.2 44.4523 11.6003 45.1349 12.3129C45.8175 13.0256 46.201 13.9921 46.201 15V34C46.201 35.0078 45.8175 35.9743 45.1349 36.687C44.4523 37.3996 43.5264 37.8 42.561 37.8H40.741" stroke="url(#paint0_linear_1_1818)" stroke-width="3" stroke-linecap="round" stroke-linejoin="round"></path>
  <path d="M28.0009 33.5996L37.8009 44.7996H18.2009L28.0009 33.5996Z" stroke="url(#paint1_linear_1_1818)" stroke-width="3" stroke-linecap="round" stroke-linejoin="round"></path>
  <defs>
    <linearGradient id="paint0_linear_1_1818" x1="28.001" y1="11.2" x2="28.001" y2="37.8" gradientUnits="userSpaceOnUse">
      <stop stop-color="#779DFF"></stop>
      <stop offset="1" stop-color="#2D68FF"></stop>
    </linearGradient>
    <linearGradient id="paint1_linear_1_1818" x1="28.0009" y1="33.5996" x2="28.0009" y2="44.7996" gradientUnits="userSpaceOnUse">
      <stop stop-color="#779DFF"></stop>
      <stop offset="1" stop-color="#2D68FF"></stop>
    </linearGradient>
  </defs>
</svg>
