<?xml version="1.0" encoding="UTF-8"?>
<svg xmlns="http://www.w3.org/2000/svg" width="16" height="16" viewBox="0 0 16 16" fill="none">
  <path d="M7.9987 5.83398C7.42406 5.83398 6.87296 6.06226 6.46663 6.46859C6.0603 6.87492 5.83203 7.42602 5.83203 8.00065C5.83203 8.57529 6.0603 9.12639 6.46663 9.53271C6.87296 9.93904 7.42406 10.1673 7.9987 10.1673C8.57333 10.1673 9.12443 9.93904 9.53076 9.53271C9.93709 9.12639 10.1654 8.57529 10.1654 8.00065C10.1654 7.42602 9.93709 6.87492 9.53076 6.46859C9.12443 6.06226 8.57333 5.83398 7.9987 5.83398Z" fill="#464D61"></path>
  <path fill-rule="evenodd" clip-rule="evenodd" d="M4.51256 2.0552C6.82991 1.79833 9.16855 1.79833 11.4859 2.0552C12.7519 2.19653 13.7726 3.1932 13.9212 4.46387C14.196 6.81364 14.196 9.18743 13.9212 11.5372C13.7726 12.8079 12.7519 13.8045 11.4866 13.9465C9.169 14.2035 6.83013 14.2035 4.51256 13.9465C3.24656 13.8045 2.2259 12.8079 2.07723 11.5379C1.80238 9.18787 1.80238 6.81386 2.07723 4.46387C2.2259 3.1932 3.24656 2.19653 4.51256 2.0552ZM11.3326 4.00053C11.1558 4.00053 10.9862 4.07077 10.8612 4.19579C10.7361 4.32082 10.6659 4.49039 10.6659 4.6672C10.6659 4.84401 10.7361 5.01358 10.8612 5.1386C10.9862 5.26363 11.1558 5.33387 11.3326 5.33387C11.5094 5.33387 11.6789 5.26363 11.804 5.1386C11.929 5.01358 11.9992 4.84401 11.9992 4.6672C11.9992 4.49039 11.929 4.32082 11.804 4.19579C11.6789 4.07077 11.5094 4.00053 11.3326 4.00053ZM4.83256 8.00053C4.83256 7.16068 5.16619 6.35523 5.76006 5.76136C6.35392 5.1675 7.15938 4.83387 7.99923 4.83387C8.83908 4.83387 9.64454 5.1675 10.2384 5.76136C10.8323 6.35523 11.1659 7.16068 11.1659 8.00053C11.1659 8.84038 10.8323 9.64584 10.2384 10.2397C9.64454 10.8336 8.83908 11.1672 7.99923 11.1672C7.15938 11.1672 6.35392 10.8336 5.76006 10.2397C5.16619 9.64584 4.83256 8.84038 4.83256 8.00053Z" fill="#464D61"></path>
</svg>
