<?xml version="1.0" encoding="UTF-8"?>
<svg xmlns="http://www.w3.org/2000/svg" width="24" height="24" viewBox="0 0 24 24" fill="none">
  <path d="M19.1807 14.8149C18.0787 14.8149 16.9966 14.6426 15.9712 14.3037C15.4688 14.1323 14.8511 14.2896 14.5444 14.6045L12.5205 16.1324C10.1733 14.8794 8.72752 13.4341 7.4917 11.1045L8.97459 9.13336C9.35986 8.74861 9.49805 8.18658 9.33248 7.65923C8.99217 6.62845 8.8193 5.54691 8.8193 4.44441C8.81934 3.64795 8.17139 3 7.37498 3H4.06936C3.27295 3 2.625 3.64795 2.625 4.44436C2.625 13.5733 10.0518 21 19.1807 21C19.9771 21 20.625 20.352 20.625 19.5556V16.2593C20.625 15.4629 19.977 14.8149 19.1807 14.8149Z" fill="white"></path>
</svg>
