<?xml version="1.0" encoding="UTF-8"?>
<svg xmlns="http://www.w3.org/2000/svg" width="40" height="40" viewBox="0 0 40 40" fill="none">
  <path d="M29 8H11C9.34315 8 8 9.34315 8 11V29C8 30.6569 9.34315 32 11 32H29C30.6569 32 32 30.6569 32 29V11C32 9.34315 30.6569 8 29 8Z" stroke="currentcolor" stroke-width="2" stroke-linecap="round" stroke-linejoin="round"></path>
  <path d="M25 15H15V25H25V15Z" stroke="currentcolor" stroke-width="2" stroke-linecap="round" stroke-linejoin="round"></path>
  <path d="M15 3V8" stroke="currentcolor" stroke-width="2" stroke-linecap="round" stroke-linejoin="round"></path>
  <path d="M25 3V8" stroke="currentcolor" stroke-width="2" stroke-linecap="round" stroke-linejoin="round"></path>
  <path d="M15 32V37" stroke="currentcolor" stroke-width="2" stroke-linecap="round" stroke-linejoin="round"></path>
  <path d="M25 32V37" stroke="currentcolor" stroke-width="2" stroke-linecap="round" stroke-linejoin="round"></path>
  <path d="M32 15H37" stroke="currentcolor" stroke-width="2" stroke-linecap="round" stroke-linejoin="round"></path>
  <path d="M32 23H37" stroke="currentcolor" stroke-width="2" stroke-linecap="round" stroke-linejoin="round"></path>
  <path d="M3 15H8" stroke="currentcolor" stroke-width="2" stroke-linecap="round" stroke-linejoin="round"></path>
  <path d="M3 23H8" stroke="currentcolor" stroke-width="2" stroke-linecap="round" stroke-linejoin="round"></path>
</svg>
