<?xml version="1.0" encoding="UTF-8"?>
<svg xmlns="http://www.w3.org/2000/svg" width="20" height="20" viewBox="0 0 20 20" fill="none">
  <path d="M16.0083 20C16.7521 20 17.3306 19.3802 17.3306 18.6777V2.60331C17.3306 1.8595 16.7107 1.28099 16.0083 1.28099H12.8678L12.3719 0.247934C12.2893 0.123967 12.1653 0 12 0H7.33058C7.16529 0 7.04132 0.0826446 6.95868 0.247934L6.46281 1.28099H3.32231C2.57851 1.28099 2 1.90083 2 2.60331V18.6364C2 19.3802 2.61984 19.9587 3.32231 19.9587H16.0083V20ZM7.61983 0.826446H11.7521L12.5785 2.52066H6.79339L7.61983 0.826446ZM2.82645 18.6364V2.60331C2.82645 2.31405 3.07438 2.10744 3.32231 2.10744H6.04959L5.71901 2.76859C5.67769 2.89256 5.67769 3.05785 5.76033 3.18182C5.84298 3.30578 5.96694 3.38843 6.09091 3.38843H13.157C13.281 3.38843 13.4463 3.30578 13.4876 3.18182C13.5702 3.05785 13.5702 2.89256 13.5289 2.76859L13.1983 2.10744H15.9256C16.2149 2.10744 16.4215 2.35537 16.4215 2.60331V18.6364C16.4215 18.9256 16.1736 19.1322 15.9256 19.1322H3.36364C3.07438 19.1736 2.82645 18.9256 2.82645 18.6364Z" fill="white"></path>
  <path d="M9.39662 5.78519H14.8925C15.1404 5.78519 15.3057 5.6199 15.3057 5.37196C15.3057 5.12403 15.1404 4.95874 14.8925 4.95874H9.39662C9.14869 4.95874 8.9834 5.12403 8.9834 5.37196C8.9834 5.6199 9.14869 5.78519 9.39662 5.78519Z" fill="white"></path>
  <path d="M9.39662 7.64444H14.8925C15.1404 7.64444 15.3057 7.47915 15.3057 7.23122C15.3057 6.98328 15.1404 6.81799 14.8925 6.81799H9.39662C9.14869 6.81799 8.9834 6.98328 8.9834 7.23122C8.9834 7.47915 9.14869 7.64444 9.39662 7.64444Z" fill="white"></path>
  <path d="M9.39662 10.6617H14.8925C15.1404 10.6617 15.3057 10.4964 15.3057 10.2484C15.3057 10.0005 15.1404 9.83521 14.8925 9.83521H9.39662C9.14869 9.83521 8.9834 10.0005 8.9834 10.2484C8.9834 10.4964 9.14869 10.6617 9.39662 10.6617Z" fill="white"></path>
  <path d="M9.39662 12.4798H14.8925C15.1404 12.4798 15.3057 12.3145 15.3057 12.0665C15.3057 11.8186 15.1404 11.6533 14.8925 11.6533H9.39662C9.14869 11.6533 8.9834 11.8186 8.9834 12.0665C8.9834 12.3145 9.14869 12.4798 9.39662 12.4798Z" fill="white"></path>
  <path d="M9.39662 15.496H14.8925C15.1404 15.496 15.3057 15.3307 15.3057 15.0828C15.3057 14.8348 15.1404 14.6696 14.8925 14.6696H9.39662C9.14869 14.6696 8.9834 14.8348 8.9834 15.0828C8.9834 15.3307 9.14869 15.496 9.39662 15.496Z" fill="white"></path>
  <path d="M9.39662 17.3145H14.8925C15.1404 17.3145 15.3057 17.1492 15.3057 16.9013C15.3057 16.6533 15.1404 16.488 14.8925 16.488H9.39662C9.14869 16.488 8.9834 16.6533 8.9834 16.9013C8.9834 17.1492 9.14869 17.3145 9.39662 17.3145Z" fill="white"></path>
  <path d="M5.26445 12.4379C5.34709 12.5205 5.42974 12.5619 5.5537 12.5619C5.67767 12.5619 5.76032 12.5205 5.84296 12.4379L7.82643 10.4544C7.99172 10.2891 7.99172 10.0412 7.82643 9.87592C7.66114 9.71063 7.41321 9.71063 7.24792 9.87592L5.5537 11.5701L4.8099 10.8263C4.64461 10.661 4.39668 10.661 4.23139 10.8263C4.0661 10.9916 4.0661 11.2396 4.23139 11.4048L5.26445 12.4379Z" fill="white"></path>
  <path d="M5.26445 17.2731C5.34709 17.3558 5.42974 17.3971 5.5537 17.3971C5.67767 17.3971 5.76032 17.3558 5.84296 17.2731L7.82643 15.2896C7.99172 15.1243 7.99172 14.8764 7.82643 14.7111C7.66114 14.5458 7.41321 14.5458 7.24792 14.7111L5.5537 16.4053L4.8099 15.6615C4.64461 15.4962 4.39668 15.4962 4.23139 15.6615C4.0661 15.8268 4.0661 16.0748 4.23139 16.24L5.26445 17.2731Z" fill="white"></path>
  <path d="M5.26445 7.81034C5.34709 7.89299 5.42974 7.93431 5.5537 7.93431C5.67767 7.93431 5.76032 7.89299 5.84296 7.81034L7.82643 5.82687C7.99172 5.66158 7.99172 5.41365 7.82643 5.24836C7.66114 5.08307 7.41321 5.08307 7.24792 5.24836L5.5537 6.90125L4.8099 6.15745C4.64461 5.99216 4.39668 5.99216 4.23139 6.15745C4.0661 6.32274 4.0661 6.57067 4.23139 6.73596L5.26445 7.81034Z" fill="white"></path>
</svg>
