<?xml version="1.0" encoding="UTF-8"?>
<svg xmlns="http://www.w3.org/2000/svg" width="24" height="24" viewBox="0 0 24 24" fill="none">
  <path d="M14.0047 14.0003C13.5195 14.3238 12.956 14.4947 12.375 14.4947C11.794 14.4947 11.2305 14.3238 10.7454 14.0003L2.75483 8.67315C2.7105 8.64359 2.66731 8.61278 2.625 8.58109V17.3103C2.625 18.3111 3.43718 19.1054 4.4201 19.1054H20.3299C21.3307 19.1054 22.125 18.2932 22.125 17.3103V8.58105C22.0826 8.61282 22.0393 8.64371 21.9949 8.6733L14.0047 14.0003Z" fill="white"></path>
  <path d="M3.38862 7.72177L11.3792 13.049C11.6816 13.2507 12.0283 13.3515 12.375 13.3515C12.7217 13.3515 13.0684 13.2506 13.3708 13.049L21.3614 7.72177C21.8395 7.40318 22.125 6.86997 22.125 6.29449C22.125 5.30498 21.32 4.5 20.3305 4.5H4.4195C3.43002 4.50004 2.625 5.30502 2.625 6.29545C2.625 6.86997 2.91049 7.40318 3.38862 7.72177Z" fill="white"></path>
</svg>
