<?xml version="1.0" encoding="UTF-8"?>
<svg xmlns="http://www.w3.org/2000/svg" width="21" height="20" viewBox="0 0 21 20" fill="none">
  <path d="M8.19769 14.2754V17.5606C8.19769 17.7901 8.34503 17.9934 8.56319 18.0657C8.61773 18.0834 8.67369 18.0919 8.72894 18.0919C8.89469 18.0919 9.05477 18.014 9.15677 17.8751L11.0785 15.26L8.19769 14.2754Z" fill="currentcolor"></path>
  <path d="M18.7769 1.89857C18.6139 1.78311 18.4 1.76753 18.2229 1.86032L2.28549 10.1832C2.09707 10.2817 1.98586 10.4828 2.00145 10.6946C2.01774 10.9071 2.1587 11.0885 2.35916 11.1572L6.78977 12.6716L16.2254 4.60369L8.92397 13.4004L16.3494 15.9384C16.4047 15.9568 16.4627 15.9667 16.5208 15.9667C16.6172 15.9667 16.7128 15.9405 16.7971 15.8895C16.9316 15.8074 17.023 15.6692 17.0464 15.5141L18.9943 2.40998C19.0234 2.21165 18.9398 2.01474 18.7769 1.89857Z" fill="currentcolor"></path>
</svg>
