<?xml version="1.0" encoding="UTF-8"?>
<svg xmlns="http://www.w3.org/2000/svg" width="48" height="40" viewBox="0 0 48 40" fill="none">
  <g clip-path="url(#clip0_1_1849)">
    <path d="M45 32H3C1.346 32 0 30.654 0 29V3C0 1.346 1.346 0 3 0H45C46.654 0 48 1.346 48 3V29C48 30.654 46.654 32 45 32ZM3 2C2.448 2 2 2.448 2 3V29C2 29.552 2.448 30 3 30H45C45.552 30 46 29.552 46 29V3C46 2.448 45.552 2 45 2H3Z" fill="#2D68FF"></path>
    <path d="M33 40H15C14.448 40 14 39.552 14 39C14 38.448 14.448 38 15 38H33C33.552 38 34 38.448 34 39C34 39.552 33.552 40 33 40Z" fill="#2D68FF"></path>
    <path d="M21 40C20.448 40 20 39.552 20 39V31C20 30.448 20.448 30 21 30C21.552 30 22 30.448 22 31V39C22 39.552 21.552 40 21 40Z" fill="#2D68FF"></path>
    <path d="M27 40C26.448 40 26 39.552 26 39V31C26 30.448 26.448 30 27 30C27.552 30 28 30.448 28 31V39C28 39.552 27.552 40 27 40Z" fill="#2D68FF"></path>
    <path d="M20 24C19.622 24 19.276 23.788 19.106 23.448L15.382 16H11C10.448 16 10 15.552 10 15C10 14.448 10.448 14 11 14H16C16.378 14 16.724 14.214 16.894 14.552L19.93 20.624L25.08 8.606C25.234 8.248 25.58 8.012 25.97 8C26.36 8.004 26.72 8.204 26.894 8.552L32.618 20H37C37.552 20 38 20.448 38 21C38 21.552 37.552 22 37 22H32C31.622 22 31.276 21.786 31.106 21.448L26.07 11.376L20.92 23.394C20.766 23.752 20.42 23.988 20.03 24C20.02 24 20.01 24 20 24Z" fill="#2D68FF"></path>
  </g>
  <defs>
    <clipPath id="clip0_1_1849">
      <rect width="48" height="40" fill="white"></rect>
    </clipPath>
  </defs>
</svg>
