<?xml version="1.0" encoding="UTF-8"?>
<svg xmlns="http://www.w3.org/2000/svg" width="48" height="48" viewBox="0 0 48 48" fill="none">
  <path d="M23.9766 2C23.1878 2 22.3996 2.0424 21.6153 2.12693C20.8965 2.20036 20.1865 2.32077 19.486 2.46689C19.3504 2.49525 19.2148 2.52517 19.0792 2.55647C14.9521 3.49612 11.1836 5.60625 8.22561 8.63382C7.95054 8.91577 7.68126 9.20607 7.41794 9.50463C-0.572489 18.6779 0.386436 32.5919 9.55982 40.5823C18.3421 48.2321 31.5618 47.7231 39.7299 39.4207C40.0055 39.1388 40.2747 38.8485 40.5376 38.5499C44.0639 34.5341 46.0071 29.3716 46.004 24.0273C46.004 11.8618 36.142 1.99991 23.9766 2ZM9.20436 9.73519C9.32037 9.61477 9.44078 9.49949 9.559 9.38275C9.69557 9.24838 9.8314 9.11328 9.97091 8.98332C10.0935 8.86878 10.2198 8.75864 10.3454 8.64703C10.4871 8.52148 10.6281 8.39592 10.7734 8.27477C10.9012 8.16684 11.0326 8.06331 11.1633 7.95904C11.3102 7.84157 11.457 7.72409 11.6083 7.61101C11.7419 7.51042 11.8777 7.41277 12.0143 7.31732C12.1663 7.20865 12.319 7.09704 12.474 6.99572C12.6127 6.90173 12.753 6.81069 12.8939 6.72037C13.0511 6.61978 13.2089 6.52066 13.3683 6.42667C13.5117 6.34104 13.6561 6.25679 13.8015 6.17409C13.964 6.08158 14.1272 5.99127 14.2912 5.90316C14.4381 5.82487 14.5849 5.74823 14.7318 5.67334C14.8992 5.5889 15.068 5.5074 15.2377 5.42737C15.3845 5.35761 15.5372 5.28786 15.6885 5.22178C15.861 5.14835 16.0358 5.07493 16.2105 5.0015C16.3625 4.93909 16.5138 4.87815 16.6672 4.81941C16.8449 4.75186 17.0248 4.68872 17.2047 4.62557C17.3582 4.57197 17.5116 4.51837 17.6673 4.46771C17.8501 4.40897 18.0344 4.35463 18.2194 4.30103C18.3743 4.25625 18.5278 4.20999 18.6835 4.16814C18.7429 4.15272 18.8024 4.14023 18.8619 4.12481C16.6885 6.23513 15.0757 8.85418 14.1693 11.7448C12.4266 11.2852 10.7395 10.6359 9.13828 9.80861C9.16251 9.78291 9.18306 9.75721 9.20436 9.73519ZM8.14851 10.9173C9.91226 11.8729 11.7826 12.6173 13.7207 13.1347C12.7706 16.4385 12.2719 19.8556 12.2383 23.293H3.43466C3.59463 18.7601 5.25228 14.408 8.14851 10.9173ZM8.14851 37.1372C5.25246 33.6464 3.59481 29.2944 3.43466 24.7615H12.2383C12.2719 28.199 12.7705 31.6161 13.7207 34.9198C11.7827 35.4375 9.91235 36.1817 8.14851 37.1372ZM18.6791 43.8894C18.5307 43.8519 18.3773 43.8034 18.2246 43.7587C18.0388 43.7043 17.8523 43.65 17.6687 43.5905C17.5138 43.5406 17.3611 43.487 17.2084 43.4334C17.0277 43.371 16.8471 43.3071 16.6687 43.2388C16.516 43.1808 16.3655 43.1199 16.2142 43.0582C16.0387 42.9848 15.8632 42.9113 15.6892 42.8379C15.5394 42.7718 15.3904 42.7038 15.2421 42.6338C15.071 42.553 14.9006 42.4708 14.7281 42.3856C14.5812 42.3122 14.4344 42.2388 14.2875 42.1587C14.1216 42.0699 13.9571 41.9788 13.7927 41.8849C13.6458 41.8034 13.5063 41.7197 13.3646 41.6345C13.2031 41.5376 13.0445 41.4377 12.8859 41.3356C12.7464 41.2468 12.6069 41.1565 12.4695 41.064C12.3132 40.9582 12.1582 40.8481 12.0048 40.738C11.8704 40.6418 11.736 40.5456 11.6039 40.4443C11.4519 40.3297 11.3028 40.2115 11.1545 40.0926C11.0246 39.989 10.8953 39.8862 10.7683 39.7798C10.6215 39.6579 10.4797 39.5309 10.3373 39.4046C10.2125 39.2937 10.0869 39.1843 9.96504 39.0712C9.82479 38.9405 9.68896 38.8047 9.55239 38.6703C9.43418 38.5536 9.31376 38.4383 9.19775 38.3186C9.17646 38.2959 9.1559 38.2724 9.1346 38.2503C10.7357 37.4227 12.4228 36.7731 14.1657 36.3134C15.0722 39.2039 16.6849 41.8229 18.8582 43.9334C18.7987 43.918 18.7385 43.9055 18.6791 43.8894ZM23.2424 44.5281C20.1006 44.0817 17.3464 40.8026 15.6136 35.9602C18.1188 35.3993 20.6754 35.0983 23.2424 35.0623V44.5281ZM23.2424 33.5938C20.5193 33.6296 17.8076 33.953 15.1525 34.5586C14.2305 31.3731 13.7442 28.0775 13.7068 24.7615H23.2424V33.5938ZM23.2424 23.293H13.7068C13.7441 19.9771 14.2305 16.6814 15.1525 13.496C17.8076 14.1015 20.5194 14.4249 23.2424 14.4608V23.293ZM23.2424 12.9923C20.6753 12.9565 18.1188 12.6556 15.6136 12.0943C17.3464 7.25197 20.1006 3.97283 23.2424 3.5264V12.9923ZM39.8048 10.9173C42.7008 14.4081 44.3585 18.7602 44.5186 23.293H35.715C35.6814 19.8556 35.1828 16.4385 34.2326 13.1347C36.1706 12.617 38.0409 11.8728 39.8048 10.9173ZM29.2684 4.16446C29.4225 4.20265 29.576 4.25111 29.7287 4.29589C29.9145 4.35023 30.101 4.40456 30.2845 4.46404C30.4395 4.51397 30.5922 4.56756 30.7449 4.62117C30.9255 4.68358 31.1062 4.74746 31.2846 4.81574C31.4373 4.87375 31.5878 4.93469 31.7391 4.99636C31.9146 5.06979 32.0901 5.14321 32.2641 5.21664C32.4139 5.28272 32.5629 5.35073 32.7112 5.42076C32.8823 5.50153 33.0527 5.58376 33.2252 5.66893C33.3721 5.74236 33.5189 5.81578 33.6658 5.89582C33.8317 5.98466 33.9962 6.07571 34.1606 6.16969C34.3075 6.25119 34.447 6.33489 34.5887 6.42007C34.7502 6.51699 34.9088 6.61684 35.0674 6.7189C35.2069 6.80775 35.3464 6.89806 35.4837 6.99058C35.6401 7.09631 35.7943 7.20571 35.9478 7.31585C36.0829 7.41203 36.2173 7.50895 36.3502 7.60954C36.5014 7.72335 36.6497 7.84157 36.7988 7.96051C36.928 8.06331 37.058 8.1661 37.185 8.2733C37.3318 8.39519 37.4735 8.52221 37.616 8.6485C37.7408 8.75937 37.8664 8.86878 37.9883 8.98185C38.1285 9.11255 38.2643 9.24838 38.4009 9.38275C38.5191 9.49949 38.6395 9.61477 38.7555 9.73445C38.7768 9.75721 38.7974 9.78071 38.8187 9.80274C37.2176 10.6304 35.5305 11.2799 33.7876 11.7397C32.8794 8.84877 31.2645 6.22999 29.0892 4.12041C29.1487 4.13583 29.2089 4.14831 29.2684 4.16446ZM24.7109 3.5264C27.8527 3.97283 30.6069 7.25197 32.3397 12.0943C29.8345 12.6553 27.2779 12.9562 24.7109 12.9923V3.5264ZM24.7109 14.4608C27.434 14.425 30.1457 14.1016 32.8008 13.496C33.7227 16.6814 34.2091 19.9771 34.2465 23.293H24.7109V14.4608ZM24.7109 24.7615H34.2465C34.2092 28.0775 33.7228 31.3731 32.8008 34.5586C30.1457 33.9531 27.434 33.6296 24.7109 33.5938V24.7615ZM24.7109 44.5281V35.0623C27.278 35.098 29.8345 35.399 32.3397 35.9602C30.6069 40.8026 27.8527 44.0817 24.7109 44.5281ZM38.7489 38.3194C38.6329 38.439 38.5132 38.5543 38.395 38.6711C38.2585 38.8054 38.1219 38.9413 37.9816 39.072C37.8598 39.1858 37.7342 39.2922 37.6094 39.406C37.4669 39.5323 37.3252 39.6586 37.1798 39.7805C37.0514 39.8877 36.9207 39.9912 36.79 40.0955C36.6431 40.213 36.4963 40.3305 36.345 40.4435C36.2114 40.5441 36.0755 40.6418 35.939 40.7372C35.787 40.8459 35.6343 40.9575 35.4793 41.0588C35.3406 41.1528 35.2003 41.2439 35.0593 41.3334C34.9022 41.4348 34.7439 41.5327 34.5843 41.6271C34.4374 41.7131 34.2972 41.7968 34.1526 41.8797C33.99 41.9722 33.8265 42.0625 33.6621 42.1507C33.5152 42.2289 33.3684 42.3056 33.2215 42.3805C33.0541 42.4649 32.8852 42.5464 32.7156 42.6265C32.5688 42.6962 32.4161 42.766 32.2648 42.832C32.0923 42.9055 31.9175 42.9789 31.7428 43.0523C31.5908 43.114 31.4395 43.1757 31.2868 43.2337C31.1076 43.302 30.9277 43.3658 30.7471 43.4282C30.5944 43.4818 30.4417 43.5354 30.2868 43.5854C30.1032 43.6449 29.9196 43.6992 29.7324 43.7528C29.5789 43.7983 29.4247 43.8438 29.2698 43.8857C29.2103 43.9011 29.1509 43.9136 29.0914 43.929C31.2648 41.8187 32.8776 39.1996 33.784 36.309C35.5267 36.7686 37.2138 37.4179 38.815 38.2452C38.7908 38.2716 38.7702 38.2973 38.7489 38.3194ZM39.8048 37.1372C38.041 36.1816 36.1707 35.4373 34.2326 34.9198C35.1827 31.6161 35.6814 28.199 35.715 24.7615H44.5186C44.3587 29.2944 42.701 33.6465 39.8048 37.1372Z" fill="#2D68FF"></path>
</svg>
