<?xml version="1.0" encoding="UTF-8"?>
<svg xmlns="http://www.w3.org/2000/svg" width="24" height="24" viewBox="0 0 24 24" fill="none">
  <path d="M11.8536 1.5C8.16359 1.5 5.08594 4.47245 5.08594 8.26768C5.08594 9.71153 5.51981 10.999 6.35248 12.2055L11.3357 19.9813C11.5775 20.3593 12.1303 20.3586 12.3715 19.9813L17.3764 12.179C18.1911 11.0273 18.6213 9.67482 18.6213 8.26768C18.6213 4.53598 15.5853 1.5 11.8536 1.5ZM11.8536 11.3439C10.1575 11.3439 8.7774 9.96382 8.7774 8.26768C8.7774 6.57153 10.1575 5.19146 11.8536 5.19146C13.5498 5.19146 14.9298 6.57153 14.9298 8.26768C14.9298 9.96382 13.5498 11.3439 11.8536 11.3439Z" fill="white"></path>
  <path d="M16.6634 15.6372L13.5654 20.4807C12.7635 21.7309 10.9394 21.7268 10.1413 20.4819L7.03826 15.6385C4.30806 16.2697 2.625 17.4261 2.625 18.808C2.625 21.2059 7.37993 22.4994 11.8537 22.4994C16.3274 22.4994 21.0823 21.2059 21.0823 18.808C21.0823 17.4251 19.3969 16.2681 16.6634 15.6372Z" fill="white"></path>
</svg>
