<?xml version="1.0" encoding="UTF-8"?>
<svg xmlns="http://www.w3.org/2000/svg" width="40" height="40" viewBox="0 0 40 40" fill="none">
  <path d="M27 16.0684L13 8.06836" stroke="currentcolor" stroke-width="2" stroke-linecap="round" stroke-linejoin="round"></path>
  <path d="M34 26.0696V14.0671C33.9994 13.5409 33.8554 13.0241 33.5824 12.5686C33.3094 12.113 32.9169 11.7347 32.4444 11.4716L21.5556 5.47037C21.0826 5.20701 20.5461 5.06836 20 5.06836C19.4539 5.06836 18.9174 5.20701 18.4444 5.47037L7.55556 11.4716C7.08308 11.7347 6.69064 12.113 6.41761 12.5686C6.14458 13.0241 6.00056 13.5409 6 14.0671V26.0696C6.00056 26.5958 6.14458 27.1126 6.41761 27.5682C6.69064 28.0237 7.08308 28.402 7.55556 28.6651L18.4444 34.6664C18.9174 34.9297 19.4539 35.0684 20 35.0684C20.5461 35.0684 21.0826 34.9297 21.5556 34.6664L32.4444 28.6651C32.9169 28.402 33.3094 28.0237 33.5824 27.5682C33.8554 27.1126 33.9994 26.5958 34 26.0696Z" stroke="currentcolor" stroke-width="2" stroke-linecap="round" stroke-linejoin="round"></path>
  <path d="M7 12.0684L20 20.0684L33 12.0684" stroke="currentcolor" stroke-width="2" stroke-linecap="round" stroke-linejoin="round"></path>
  <path d="M20 35.0684V20.0684" stroke="currentcolor" stroke-width="2" stroke-linecap="round" stroke-linejoin="round"></path>
</svg>
