<?xml version="1.0" encoding="UTF-8"?>
<svg xmlns="http://www.w3.org/2000/svg" width="21" height="20" viewBox="0 0 21 20" fill="none">
  <path d="M12.9104 4.86696C13.6586 5.00354 14.3462 5.34592 14.8852 5.85028C15.4242 6.35463 15.7901 6.99801 15.9361 7.69808M12.9104 2C14.4648 2.16158 15.9143 2.81291 17.0209 3.84704C18.1275 4.88118 18.8254 6.23665 19 7.69091M18.234 13.4105V15.5607C18.2349 15.7603 18.1912 15.9579 18.1057 16.1408C18.0203 16.3237 17.8949 16.4879 17.7377 16.6228C17.5805 16.7578 17.3949 16.8605 17.1928 16.9244C16.9908 16.9884 16.7766 17.0121 16.5642 16.9942C14.2071 16.7545 11.943 16.0009 9.95371 14.7938C8.10295 13.6934 6.53384 12.2251 5.35779 10.4934C4.06326 8.62353 3.25765 6.49467 3.00622 4.27923C2.98708 4.08103 3.01225 3.88127 3.08014 3.69267C3.14802 3.50407 3.25713 3.33076 3.40052 3.18378C3.54391 3.0368 3.71843 2.91937 3.91298 2.83896C4.10753 2.75855 4.31785 2.71693 4.53053 2.71674H6.82849C7.20022 2.71332 7.56061 2.83649 7.84247 3.06331C8.12433 3.29012 8.30843 3.6051 8.36046 3.94953C8.45745 4.63765 8.63732 5.31329 8.89665 5.96357C8.99971 6.22011 9.02201 6.49891 8.96092 6.76695C8.89983 7.03498 8.7579 7.28101 8.55195 7.47589L7.57915 8.38614C8.66958 10.1805 10.2574 11.6663 12.1751 12.6866L13.1479 11.7763C13.3561 11.5836 13.6191 11.4508 13.9055 11.3936C14.192 11.3365 14.4899 11.3574 14.7641 11.4538C15.4591 11.6964 16.1811 11.8648 16.9165 11.9555C17.2886 12.0046 17.6284 12.18 17.8713 12.4483C18.1143 12.7165 18.2433 13.059 18.234 13.4105Z" stroke="currentcolor" stroke-width="1.5" stroke-linecap="round" stroke-linejoin="round"></path>
</svg>
