<?xml version="1.0" encoding="UTF-8"?>
<svg xmlns="http://www.w3.org/2000/svg" width="20" height="20" viewBox="0 0 20 20" fill="none">
  <path fill-rule="evenodd" clip-rule="evenodd" d="M17.3416 9.69177C17.1716 9.72046 17.0569 9.88159 17.0856 10.0519C17.1533 10.4523 17.1875 10.8551 17.1875 11.25C17.1875 13.4526 16.2057 15.4408 14.6239 16.7646C14.3477 14.9709 13.0742 13.5323 11.3831 13.0175C12.0554 12.569 12.5 11.8048 12.5 10.9375C12.5 9.55872 11.3785 8.4375 10 8.4375C8.62152 8.4375 7.5 9.55872 7.5 10.9375C7.5 11.8048 7.94456 12.569 8.61691 13.0175C6.92581 13.5323 5.65231 14.9709 5.37605 16.7646C3.79425 15.4408 2.8125 13.4526 2.8125 11.25C2.8125 10.8551 2.84668 10.4523 2.91443 10.0519C2.94312 9.88159 2.82837 9.72046 2.65839 9.69177C2.48444 9.66248 2.32697 9.77783 2.29797 9.94812C2.22473 10.3821 2.1875 10.8203 2.1875 11.25C2.1875 15.0879 4.92859 18.327 8.70514 18.952C8.72223 18.9551 8.73962 18.9563 8.75641 18.9563C8.90656 18.9563 9.039 18.8477 9.06433 18.6951C9.09271 18.5248 8.97736 18.3636 8.80707 18.3356C7.75402 18.1613 6.79066 17.7631 5.95638 17.1984C6.10714 15.0776 7.85007 13.4375 10 13.4375C12.1499 13.4375 13.8929 15.0776 14.0436 17.1984C13.2093 17.7631 12.246 18.1613 11.1929 18.3356C11.0226 18.3636 10.9073 18.5248 10.9357 18.6951C10.961 18.8477 11.0934 18.9563 11.2436 18.9563C11.2604 18.9563 11.2778 18.9551 11.2949 18.952C15.0714 18.327 17.8125 15.0879 17.8125 11.25C17.8125 10.8203 17.7753 10.3821 17.702 9.94812C17.673 9.77783 17.5137 9.66187 17.3416 9.69177ZM8.125 10.9375C8.125 9.90356 8.96606 9.0625 10 9.0625C11.0339 9.0625 11.875 9.90356 11.875 10.9375C11.875 11.9714 11.0339 12.8125 10 12.8125C8.96606 12.8125 8.125 11.9714 8.125 10.9375Z" fill="white"></path>
  <path fill-rule="evenodd" clip-rule="evenodd" d="M13.4222 3.42407C13.3853 3.31055 13.2876 3.22815 13.1698 3.21106L11.1731 2.92114L10.2801 1.11145C10.1752 0.899048 9.82482 0.899048 9.71984 1.11145L8.82689 2.92114L6.83013 3.21106C6.71233 3.22815 6.61467 3.31055 6.57775 3.42407C6.54112 3.53699 6.57164 3.6615 6.65679 3.74451L8.10179 5.15259L7.76061 7.14111C7.74047 7.25891 7.78868 7.37732 7.88481 7.4469C7.98155 7.51709 8.10881 7.52747 8.2141 7.4707L9.99999 6.53137L11.7859 7.4707C11.8317 7.49512 11.8817 7.50671 11.9314 7.50671C11.9961 7.50671 12.0605 7.48657 12.1152 7.4469C12.2113 7.37732 12.2595 7.25891 12.2394 7.14111L11.8982 5.15259L13.3432 3.74451C13.4283 3.6615 13.4588 3.53699 13.4222 3.42407ZM11.3443 4.81934C11.2707 4.89136 11.2372 4.99451 11.2546 5.09644L11.5164 6.62292L10.1456 5.9021C10.0998 5.8783 10.05 5.86609 9.99999 5.86609C9.94994 5.86609 9.90019 5.8783 9.85442 5.9021L8.48357 6.62292L8.74541 5.09644C8.7628 4.99451 8.72923 4.89136 8.65569 4.81934L7.54668 3.73901L9.07927 3.51624C9.1812 3.50098 9.26909 3.4375 9.31456 3.34534L9.99999 1.95618L10.6854 3.34534C10.7309 3.4375 10.8188 3.50098 10.9207 3.51624L12.4533 3.73901L11.3443 4.81934Z" fill="white"></path>
  <path fill-rule="evenodd" clip-rule="evenodd" d="M2.52196 8.45215C2.50182 8.56995 2.55004 8.68835 2.64617 8.75793C2.74321 8.82812 2.87078 8.83789 2.97545 8.78174L4.37499 8.04565L5.77452 8.78174C5.8203 8.80615 5.87035 8.81775 5.92009 8.81775C5.98479 8.81775 6.04918 8.79761 6.10381 8.75793C6.19994 8.68835 6.24816 8.56995 6.22801 8.45215L5.96068 6.89392L7.09319 5.79041C7.17833 5.7074 7.20885 5.58289 7.17223 5.46997C7.1353 5.35645 7.03764 5.27405 6.91985 5.25696L5.35491 5.02991L4.65514 3.61145C4.55016 3.39905 4.19982 3.39905 4.09484 3.61145L3.39507 5.02991L1.83013 5.25696C1.71233 5.27405 1.61467 5.35645 1.57775 5.46997C1.54112 5.58289 1.57164 5.7074 1.65679 5.79041L2.78929 6.89392L2.52196 8.45215ZM2.54668 5.78491L3.64745 5.625C3.74938 5.60974 3.83727 5.54626 3.88274 5.4541L4.37499 4.45618L4.86724 5.4541C4.91271 5.54626 5.0006 5.60974 5.10253 5.625L6.20329 5.78491L5.40679 6.56067C5.33324 6.63269 5.29967 6.73584 5.31706 6.83777L5.50505 7.93396L4.52056 7.41638C4.47478 7.39258 4.42504 7.38037 4.37499 7.38037C4.32494 7.38037 4.27519 7.39258 4.22942 7.41638L3.24492 7.93396L3.43291 6.83777C3.4503 6.73584 3.41673 6.63269 3.34319 6.56067L2.54668 5.78491Z" fill="white"></path>
  <path fill-rule="evenodd" clip-rule="evenodd" d="M18.1698 5.25696L16.6049 5.02991L15.9051 3.61145C15.8002 3.39905 15.4498 3.39905 15.3448 3.61145L14.6451 5.02991L13.0801 5.25696C12.9623 5.27405 12.8647 5.35645 12.8277 5.46997C12.7911 5.58289 12.8216 5.7074 12.9068 5.79041L14.0393 6.89392L13.772 8.45215C13.7518 8.56995 13.8 8.68835 13.8962 8.75793C13.9929 8.82812 14.1202 8.83789 14.2255 8.78174L15.625 8.04565L17.0245 8.78174C17.0703 8.80615 17.1203 8.81775 17.1701 8.81775C17.2348 8.81775 17.2992 8.79761 17.3538 8.75793C17.4499 8.68835 17.4982 8.56995 17.478 8.45215L17.2107 6.89392L18.3432 5.79041C18.4283 5.7074 18.4588 5.58289 18.4222 5.46997C18.3853 5.35645 18.2876 5.27405 18.1698 5.25696ZM16.6568 6.56067C16.5832 6.63269 16.5497 6.73584 16.5671 6.83777L16.7551 7.93396L15.7706 7.41638C15.7248 7.39258 15.675 7.38037 15.625 7.38037C15.5749 7.38037 15.5252 7.39258 15.4794 7.41638L14.4949 7.93396L14.6829 6.83777C14.7003 6.73584 14.6667 6.63269 14.5932 6.56067L13.7967 5.78491L14.8974 5.625C14.9994 5.60974 15.0873 5.54626 15.1327 5.4541L15.625 4.45618L16.1172 5.4541C16.1627 5.54626 16.2506 5.60974 16.3525 5.625L17.4533 5.78491L16.6568 6.56067Z" fill="white"></path>
  <path d="M10 19.0625C10.1726 19.0625 10.3125 18.9226 10.3125 18.75C10.3125 18.5774 10.1726 18.4375 10 18.4375C9.82741 18.4375 9.6875 18.5774 9.6875 18.75C9.6875 18.9226 9.82741 19.0625 10 19.0625Z" fill="white"></path>
</svg>
