<?xml version="1.0" encoding="UTF-8"?>
<svg xmlns="http://www.w3.org/2000/svg" width="20" height="20" viewBox="0 0 20 20" fill="none">
  <path d="M12.8313 8.80249C12.8313 8.49186 12.5794 8.23999 12.2688 8.23999H6.0813C5.77067 8.23999 5.5188 8.49186 5.5188 8.80249C5.5188 9.11312 5.77067 9.36499 6.0813 9.36499H12.2688C12.5794 9.36499 12.8313 9.11312 12.8313 8.80249Z" fill="white"></path>
  <path d="M6.08008 11.0806C5.76945 11.0806 5.51758 11.3324 5.51758 11.6431C5.51758 11.9537 5.76945 12.2056 6.08008 12.2056H9.3607C9.67133 12.2056 9.9232 11.9537 9.9232 11.6431C9.9232 11.3324 9.67133 11.0806 9.3607 11.0806H6.08008Z" fill="white"></path>
  <path d="M16.5375 8.83373C16.2269 8.83373 15.975 9.0856 15.975 9.39623V13.9456C15.975 14.7969 15.2825 15.4894 14.4312 15.4894H10.6687C10.5469 15.4894 10.4281 15.5287 10.3306 15.6025L7.08187 18.0456C6.99937 18.1075 6.92187 18.0819 6.88312 18.0606C6.84375 18.0406 6.77875 17.9912 6.78125 17.8906L6.84375 16.0719C6.84875 15.9194 6.79187 15.7712 6.68625 15.6618C6.58062 15.5519 6.43437 15.49 6.28187 15.49H3.66875C2.8175 15.49 2.125 14.7981 2.125 13.9462V6.50873C2.125 5.65435 2.8175 4.95935 3.66875 4.95935H10.6C10.9106 4.95935 11.1625 4.70748 11.1625 4.39685C11.1625 4.08623 10.9106 3.83435 10.6 3.83435H3.66875C2.1975 3.83435 1 5.03435 1 6.50935V13.9462C1 15.4175 2.1975 16.6156 3.66875 16.6156H5.69938L5.65687 17.8544C5.64187 18.3631 5.9125 18.8256 6.36437 19.06C6.5575 19.1606 6.76562 19.21 6.97187 19.21C7.24875 19.21 7.52313 19.1206 7.75688 18.9462L10.8563 16.6156H14.4306C15.9019 16.6156 17.0994 15.4181 17.0994 13.9462V9.39685C17.1 9.0856 16.8481 8.83373 16.5375 8.83373Z" fill="white"></path>
  <path d="M19.5781 3.4756C19.4762 3.1631 19.2256 2.92935 18.9075 2.8506L17.47 2.49247L16.685 1.23622C16.3368 0.677471 15.4281 0.678721 15.0806 1.23622L14.2956 2.49247L12.8581 2.8506C12.54 2.92935 12.2887 3.1631 12.1875 3.4756C12.0862 3.7881 12.1512 4.12497 12.3625 4.37685L13.315 5.5106L13.2112 6.9881C13.1881 7.3156 13.3331 7.62622 13.5987 7.81935C13.7637 7.93935 13.9575 8.00122 14.1537 8.00122C14.2731 8.00122 14.3937 7.9781 14.5093 7.93122L15.8831 7.37622L17.2562 7.93122C17.5606 8.05497 17.9006 8.01247 18.1668 7.81997C18.4325 7.62685 18.5775 7.31622 18.555 6.9881L18.4512 5.5106L19.4037 4.37622C19.6143 4.12497 19.68 3.7881 19.5781 3.4756ZM17.4431 4.96122C17.3493 5.0731 17.3025 5.21685 17.3131 5.3631L17.4131 6.78185L16.0943 6.24872C16.0268 6.22122 15.955 6.20747 15.8837 6.20747C15.8125 6.20747 15.7406 6.22122 15.6731 6.24872L14.355 6.78185L14.4543 5.3631C14.4643 5.21747 14.4175 5.0731 14.3243 4.96122L13.41 3.87247L14.79 3.5281C14.9312 3.49247 15.0537 3.40435 15.1306 3.2806L15.8843 2.07497L16.6381 3.2806C16.7156 3.40435 16.8375 3.4931 16.9787 3.5281L18.3587 3.87247L17.4431 4.96122Z" fill="white"></path>
</svg>
