<?xml version="1.0" encoding="UTF-8"?>
<svg xmlns="http://www.w3.org/2000/svg" width="48" height="48" viewBox="0 0 48 48" fill="none">
  <path d="M42.239 34.8153H17.1775C15.0059 34.8125 13.245 33.053 13.2423 30.8801V27.883L7.07647 5.72511C6.87181 5.09465 6.28531 4.66748 5.62189 4.66748L0.83099 4.66199C0.372229 4.66199 0 4.28976 0 3.831C0 3.37223 0.372229 3.00001 0.83099 3.00001H5.62052C7.01466 2.99726 8.24809 3.90105 8.66565 5.23063C14.9867 27.9448 14.8411 27.4174 14.8411 27.4201C14.9537 27.6907 14.8837 27.6069 14.9056 30.8746C14.907 32.1286 15.9234 33.1464 17.1775 33.1464H42.239C42.6978 33.1464 43.07 33.5186 43.07 33.9774C43.07 34.4362 42.6978 34.8084 42.239 34.8084V34.8153Z" fill="#2D68FF"></path>
  <path d="M39.3518 28.8704H14.0746C13.6158 28.8704 13.2436 28.4981 13.2436 28.0394C13.2436 27.5806 13.6158 27.2084 14.0746 27.2084H39.3518C39.9012 27.207 40.3655 26.7991 40.4369 26.2538L42.3337 11.436C42.4107 10.8372 41.9876 10.2891 41.3888 10.2122C41.2542 10.1957 42.765 10.2067 8.95404 10.204C8.49528 10.204 8.12305 9.83174 8.12305 9.37298C8.12305 8.91422 8.49528 8.54199 8.95404 8.54199H41.2432C42.9079 8.54199 44.1908 10.0103 43.9765 11.6476L42.0796 26.4639C41.9025 27.8361 40.735 28.8662 39.3518 28.8704Z" fill="#2D68FF"></path>
  <path d="M34.0693 28.7679H34.0226C33.6215 28.7418 33.318 28.397 33.3427 27.9959L34.5377 9.32819C34.5638 8.92711 34.9099 8.62219 35.311 8.64691C35.7121 8.67301 36.017 9.01914 35.9923 9.42021L34.7973 28.088C34.7726 28.4712 34.4525 28.7692 34.0693 28.7679Z" fill="#2D68FF"></path>
  <path d="M27.0959 28.7677C26.6948 28.7677 26.3679 28.4422 26.3679 28.0398V9.37202C26.3679 8.97094 26.6934 8.64404 27.0959 8.64404C27.497 8.64404 27.8239 8.96957 27.8239 9.37202V28.0411C27.8239 28.4422 27.4983 28.7677 27.0959 28.7677Z" fill="#2D68FF"></path>
  <path d="M20.1237 28.768C19.7391 28.7694 19.4205 28.4713 19.3958 28.0881L18.2008 9.42037C18.1747 9.01929 18.4796 8.67179 18.8821 8.64707C19.2831 8.62097 19.6306 8.92589 19.6554 9.32834L20.8503 27.9961C20.8764 28.3972 20.5715 28.7419 20.1704 28.768H20.1237Z" fill="#2D68FF"></path>
  <path d="M42.2349 19.4315H11.5515C11.1504 19.4315 10.8235 19.106 10.8235 18.7036C10.8235 18.3011 11.149 17.9756 11.5515 17.9756H42.2349C42.636 17.9756 42.9629 18.3011 42.9629 18.7036C42.9629 19.106 42.6374 19.4315 42.2349 19.4315Z" fill="#2D68FF"></path>
  <path d="M39.1775 44.5598C37.0279 44.5598 35.2862 42.8168 35.2876 40.6672C35.289 38.5176 37.0306 36.776 39.1802 36.7773C41.3284 36.7773 43.0701 38.5204 43.0701 40.6686C43.0673 42.8168 41.3257 44.5584 39.1775 44.5598ZM39.1775 38.4393C37.9468 38.4393 36.9496 39.4379 36.9496 40.6686C36.9496 41.8993 37.9481 42.8965 39.1788 42.8965C40.4095 42.8965 41.4067 41.8979 41.4067 40.6672C41.4067 39.4351 40.4081 38.4366 39.1775 38.4352V38.4393Z" fill="#2D68FF"></path>
  <path d="M18.0511 44.5598C15.9016 44.5598 14.1599 42.8182 14.1599 40.6686C14.1599 38.519 15.9016 36.7773 18.0511 36.7773C20.2007 36.7773 21.9424 38.519 21.9424 40.6686C21.9396 42.8168 20.1994 44.5571 18.0511 44.5598ZM18.0511 38.4393C16.8205 38.4393 15.8219 39.4365 15.8219 40.6686C15.8219 41.8993 16.8191 42.8978 18.0511 42.8978C19.2818 42.8978 20.2804 41.9006 20.2804 40.6686C20.2804 39.4379 19.2832 38.438 18.0511 38.4366V38.4393Z" fill="#2D68FF"></path>
</svg>
