<?xml version="1.0" encoding="UTF-8"?>
<svg xmlns="http://www.w3.org/2000/svg" width="40" height="40" viewBox="0 0 40 40" fill="none">
  <path d="M15.6667 7H9.88889C9.12271 7 8.38791 7.30436 7.84614 7.84614C7.30436 8.38791 7 9.12271 7 9.88889V15.6667M15.6667 7H30.1111C30.8773 7 31.6121 7.30436 32.1539 7.84614C32.6956 8.38791 33 9.12271 33 9.88889V15.6667M15.6667 7V33M7 15.6667V30.1111C7 30.8773 7.30436 31.6121 7.84614 32.1539C8.38791 32.6956 9.12271 33 9.88889 33H15.6667M7 15.6667H33M33 15.6667V30.1111C33 30.8773 32.6956 31.6121 32.1539 32.1539C31.6121 32.6956 30.8773 33 30.1111 33H15.6667" stroke="currentcolor" stroke-width="2" stroke-linecap="round" stroke-linejoin="round"></path>
</svg>
